<svg width="300" height="300" viewBox="0 0 300 300" fill="none" xmlns="http://www.w3.org/2000/svg">
<path d="M232.768 215.583L150.079 194.332C147.27 193.61 145.577 190.747 146.299 187.937L181.94 49.26C182.662 46.4502 185.525 44.7578 188.335 45.48L271.023 66.731C273.833 67.4531 275.525 70.3162 274.803 73.126L239.163 211.803C238.441 214.613 235.578 216.305 232.768 215.583Z" fill="#6B81BE"/>
<path d="M270.443 72.003L234.802 210.681C234.699 211.083 234.29 211.329 233.888 211.226L151.2 189.975C150.798 189.872 150.554 189.458 150.657 189.056L186.297 50.3775C186.401 49.9756 186.813 49.7357 187.215 49.839L211.99 56.2062C211.373 58.6081 212.819 61.0552 215.221 61.6725L239.662 67.9538C240.863 68.2624 242.078 68.0534 243.064 67.4705C244.051 66.8876 244.82 65.9237 245.128 64.7227L269.903 71.0899C270.305 71.1932 270.546 71.601 270.443 72.003Z" fill="#E9F3FF"/>
<path d="M267.04 109.952L265.444 109.542L271.322 86.6713L272.918 87.0816C273.848 87.3205 274.408 88.2676 274.169 89.1971L269.156 108.702C268.917 109.631 267.97 110.191 267.04 109.952Z" fill="#E9F3FF"/>
<path d="M262.805 126.436L261.208 126.026L264.328 113.886L265.925 114.296C266.854 114.535 267.414 115.482 267.175 116.412L264.92 125.186C264.681 126.115 263.734 126.675 262.805 126.436Z" fill="#E9F3FF"/>
<path d="M217.123 57.525C217.356 56.6194 218.279 56.0739 219.184 56.3066L238.775 61.3416C239.681 61.5743 240.226 62.4971 239.994 63.4028V63.4028C239.761 64.3084 238.838 64.8539 237.932 64.6211L218.341 59.5862C217.436 59.3534 216.89 58.4306 217.123 57.525Z" fill="#404B7C"/>
<path d="M215.347 150.18C236.51 150.18 253.666 133.024 253.666 111.861C253.666 90.6985 236.51 73.5427 215.347 73.5427C194.185 73.5427 177.029 90.6985 177.029 111.861C177.029 133.024 194.185 150.18 215.347 150.18Z" fill="#9AB3DA"/>
<path d="M228.364 140.352L190.207 130.545C188.796 130.183 187.946 128.745 188.309 127.334L194.921 101.604C195.284 100.193 196.722 99.3431 198.133 99.7057L236.29 109.512C237.701 109.875 238.551 111.313 238.189 112.724L231.576 138.453C231.213 139.864 229.775 140.714 228.364 140.352Z" fill="#6B81BE"/>
<path d="M238.521 90.4326L232.749 112.89L217.021 120.996L216.808 120.682C215.268 118.397 212.266 117.626 209.815 118.885L209.477 119.056L199.606 104.372L205.378 81.9148C205.631 80.9269 206.636 80.3332 207.619 80.5859L237.198 88.1877C238.181 88.4403 238.774 89.4447 238.521 90.4326Z" fill="#E9F3FF"/>
<path d="M226.258 95.0489L209.129 90.6466C208.295 90.4325 207.793 89.5833 208.007 88.75C208.222 87.9166 209.071 87.4147 209.904 87.6289L227.034 92.0312C227.867 92.2453 228.369 93.0945 228.155 93.9278V93.9278C227.94 94.7611 227.091 95.2631 226.258 95.0489Z" fill="#404B7C"/>
<path d="M228.905 104.518L207.01 98.8904C206.177 98.6762 205.675 97.8271 205.889 96.9937C206.103 96.1604 206.952 95.6585 207.785 95.8727L229.681 101.5C230.514 101.714 231.016 102.563 230.802 103.396V103.396C230.588 104.23 229.739 104.732 228.905 104.518Z" fill="#404B7C"/>
<path d="M227.408 110.344L205.512 104.717C204.679 104.503 204.177 103.654 204.391 102.82C204.605 101.987 205.455 101.485 206.288 101.699L228.183 107.326C229.017 107.541 229.519 108.39 229.304 109.223V109.223C229.09 110.056 228.241 110.558 227.408 110.344Z" fill="#404B7C"/>
<path d="M228.692 138.364L216.806 120.683C215.27 118.398 212.265 117.625 209.817 118.887L190.879 128.646" stroke="#404B7C" stroke-width="3" stroke-miterlimit="10" stroke-linecap="round" stroke-linejoin="round"/>
<path d="M209.48 119.06L197.806 101.694" stroke="#404B7C" stroke-width="3" stroke-miterlimit="10" stroke-linecap="round" stroke-linejoin="round"/>
<path d="M235.619 111.412L217.017 120.997" stroke="#404B7C" stroke-width="3" stroke-miterlimit="10" stroke-linecap="round" stroke-linejoin="round"/>
<path d="M219.327 173.226L182.274 163.703C180.558 163.262 179.525 161.513 179.966 159.798L180.764 156.691C181.205 154.975 182.954 153.941 184.669 154.382L221.723 163.905C223.439 164.346 224.472 166.094 224.031 167.81L223.233 170.917C222.792 172.633 221.043 173.667 219.327 173.226Z" fill="#404B7C"/>
<path d="M223.189 188.755L171.403 175.446C169.687 175.005 168.654 173.256 169.095 171.54V171.54C169.536 169.825 171.284 168.791 173 169.232L224.786 182.541C226.502 182.982 227.536 184.731 227.095 186.446C226.654 188.162 224.905 189.196 223.189 188.755Z" fill="#404B7C"/>
<path d="M220.749 198.248L168.963 184.939C167.248 184.498 166.214 182.75 166.655 181.034V181.034C167.096 179.318 168.844 178.285 170.56 178.726L222.346 192.035C224.062 192.476 225.096 194.224 224.655 195.94C224.214 197.656 222.465 198.689 220.749 198.248Z" fill="#404B7C"/>
<path d="M117.733 13.1881V16.7525" stroke="#6B81BE" stroke-width="2" stroke-miterlimit="10" stroke-linecap="round" stroke-linejoin="round"/>
<path d="M117.733 23.7029V20.1385" stroke="#6B81BE" stroke-width="2" stroke-miterlimit="10" stroke-linecap="round" stroke-linejoin="round"/>
<path d="M122.99 18.4456H119.426" stroke="#6B81BE" stroke-width="2" stroke-miterlimit="10" stroke-linecap="round" stroke-linejoin="round"/>
<path d="M112.476 18.4456H116.04" stroke="#6B81BE" stroke-width="2" stroke-miterlimit="10" stroke-linecap="round" stroke-linejoin="round"/>
<path d="M30.2881 171.594V175.158" stroke="#6B81BE" stroke-width="2" stroke-miterlimit="10" stroke-linecap="round" stroke-linejoin="round"/>
<path d="M30.2881 182.109V178.544" stroke="#6B81BE" stroke-width="2" stroke-miterlimit="10" stroke-linecap="round" stroke-linejoin="round"/>
<path d="M35.5453 176.851H31.981" stroke="#6B81BE" stroke-width="2" stroke-miterlimit="10" stroke-linecap="round" stroke-linejoin="round"/>
<path d="M25.0308 176.851H28.5951" stroke="#6B81BE" stroke-width="2" stroke-miterlimit="10" stroke-linecap="round" stroke-linejoin="round"/>
<path d="M129.138 152.139V154.394" stroke="#6B81BE" stroke-width="2" stroke-miterlimit="10" stroke-linecap="round" stroke-linejoin="round"/>
<path d="M129.138 158.792V156.537" stroke="#6B81BE" stroke-width="2" stroke-miterlimit="10" stroke-linecap="round" stroke-linejoin="round"/>
<path d="M132.464 155.465H130.209" stroke="#6B81BE" stroke-width="2" stroke-miterlimit="10" stroke-linecap="round" stroke-linejoin="round"/>
<path d="M125.811 155.465H128.066" stroke="#6B81BE" stroke-width="2" stroke-miterlimit="10" stroke-linecap="round" stroke-linejoin="round"/>
<path d="M38.3961 67.3069C39.8397 67.3069 41.0099 66.1367 41.0099 64.6931C41.0099 63.2495 39.8397 62.0792 38.3961 62.0792C36.9525 62.0792 35.7822 63.2495 35.7822 64.6931C35.7822 66.1367 36.9525 67.3069 38.3961 67.3069Z" stroke="#6B81BE" stroke-width="2" stroke-miterlimit="10" stroke-linecap="round" stroke-linejoin="round"/>
<path d="M39.9407 207.03C40.6625 207.03 41.2477 206.444 41.2477 205.723C41.2477 205.001 40.6625 204.416 39.9407 204.416C39.2189 204.416 38.6338 205.001 38.6338 205.723C38.6338 206.444 39.2189 207.03 39.9407 207.03Z" stroke="#6B81BE" stroke-width="2" stroke-miterlimit="10" stroke-linecap="round" stroke-linejoin="round"/>
<path d="M160.513 266.179C162.547 266.179 164.196 264.53 164.196 262.496C164.196 260.462 162.547 258.813 160.513 258.813C158.479 258.813 156.83 260.462 156.83 262.496C156.83 264.53 158.479 266.179 160.513 266.179Z" stroke="#6B81BE" stroke-width="2" stroke-miterlimit="10" stroke-linecap="round" stroke-linejoin="round"/>
<path d="M233.514 19.5149L211.768 35.5842L213.352 27.4359L233.514 19.5149Z" fill="#3F72AF"/>
<path d="M207.851 18.4456L211.767 24.847L233.514 19.5149L207.851 18.4456Z" fill="#DBE2EF"/>
<path d="M233.514 19.5149L213.352 27.4359L218.9 36.505L233.514 19.5149Z" fill="#DBE2EF"/>
<path d="M233.517 19.5173L213.352 27.4373L211.767 35.5823V24.8473L233.517 19.5173Z" fill="#3F72AF"/>
<path d="M265.878 213.334L258.817 239.436L254.997 232.066L265.878 213.334Z" fill="#3F72AF"/>
<path d="M245.102 228.438L252.148 231.021L265.878 213.334L245.102 228.438Z" fill="#DBE2EF"/>
<path d="M265.878 213.334L254.997 232.066L264.979 235.727L265.878 213.334Z" fill="#DBE2EF"/>
<path d="M265.881 213.335L254.998 232.067L258.815 239.435L252.147 231.022L265.881 213.335Z" fill="#3F72AF"/>
<path d="M191.774 224.162L173.427 246.914C172.376 248.217 170.469 248.421 169.166 247.371L136.426 220.969C135.123 219.919 134.919 218.011 135.969 216.709L154.316 193.957C155.367 192.654 157.274 192.45 158.577 193.5L191.317 219.902C192.619 220.953 192.824 222.86 191.774 224.162Z" fill="#6B81BE"/>
<path d="M157.453 199.716L142.262 218.554C141.658 219.303 140.562 219.42 139.813 218.816C139.064 218.212 138.947 217.116 139.551 216.367L154.741 197.529C155.345 196.781 156.442 196.663 157.19 197.267C157.939 197.871 158.057 198.967 157.453 199.716Z" fill="#9AB3DA"/>
<path d="M170.527 210.259L155.336 229.097C154.733 229.846 153.636 229.963 152.887 229.359L144.715 222.769C143.966 222.165 143.849 221.069 144.452 220.32L159.643 201.482C160.247 200.733 161.344 200.616 162.092 201.22L170.265 207.81C171.014 208.414 171.131 209.51 170.527 210.259Z" fill="#9AB3DA"/>
<path d="M175.118 213.961L159.927 232.799C159.323 233.548 158.227 233.665 157.478 233.061H157.478C156.729 232.458 156.612 231.361 157.216 230.612L172.406 211.774C173.01 211.026 174.107 210.908 174.855 211.512C175.604 212.116 175.722 213.212 175.118 213.961Z" fill="#9AB3DA"/>
<path d="M188.192 224.504L173.001 243.342C172.398 244.091 171.301 244.208 170.552 243.605L162.38 237.014C161.631 236.41 161.514 235.314 162.117 234.565L177.308 215.727C177.912 214.978 179.009 214.861 179.757 215.465L187.93 222.055C188.679 222.659 188.796 223.755 188.192 224.504Z" fill="#9AB3DA"/>
<path d="M196.601 223.474L171.575 238.572C170.142 239.436 168.28 238.976 167.416 237.543L145.69 201.529C144.826 200.097 145.286 198.234 146.719 197.37L171.745 182.272C173.178 181.408 175.04 181.869 175.905 183.302L197.631 219.315C198.495 220.748 198.034 222.61 196.601 223.474Z" fill="#E9F3FF"/>
<path d="M172.722 188.757L152 201.258C151.177 201.754 150.106 201.49 149.61 200.666C149.113 199.842 149.378 198.772 150.201 198.275L170.922 185.774C171.746 185.278 172.816 185.542 173.313 186.366C173.81 187.19 173.545 188.26 172.722 188.757Z" fill="#9AB3DA"/>
<path d="M181.397 203.138L160.676 215.639C159.852 216.136 158.782 215.871 158.285 215.047L152.862 206.058C152.365 205.234 152.63 204.164 153.454 203.667L174.175 191.166C174.998 190.669 176.069 190.934 176.566 191.758L181.989 200.747C182.486 201.571 182.221 202.642 181.397 203.138Z" fill="#9AB3DA"/>
<path d="M184.444 208.188L163.723 220.689C162.899 221.186 161.829 220.921 161.332 220.097C160.835 219.273 161.1 218.203 161.923 217.706L182.645 205.205C183.468 204.709 184.539 204.973 185.035 205.797C185.532 206.621 185.267 207.691 184.444 208.188Z" fill="#9AB3DA"/>
<path d="M193.12 222.569L172.399 235.07C171.575 235.567 170.505 235.302 170.008 234.478L164.585 225.489C164.088 224.665 164.353 223.595 165.176 223.098L185.897 210.597C186.721 210.1 187.792 210.365 188.288 211.189L193.712 220.178C194.208 221.002 193.944 222.073 193.12 222.569Z" fill="#9AB3DA"/>
<path d="M182.537 233.086C182.537 233.086 182.921 233.829 183.722 234.995" stroke="#6B81BE" stroke-width="2" stroke-linecap="round" stroke-linejoin="round"/>
<path d="M186.489 238.468C190.446 242.805 197.512 248.298 208.3 249.012C226.448 250.214 234.214 237.214 231.25 227.265C228.042 216.498 211.883 213.334 205.613 224.151C198.096 237.118 210.711 252.393 227.333 250.917C237.279 250.034 243.18 246.406 246.316 243.634" stroke="#6B81BE" stroke-width="2" stroke-linecap="round" stroke-linejoin="round" stroke-dasharray="8.89 8.89"/>
<path d="M247.902 242.073C248.863 241.012 249.279 240.298 249.279 240.298" stroke="#6B81BE" stroke-width="2" stroke-linecap="round" stroke-linejoin="round"/>
<path d="M192.406 84.2662C192.406 84.2662 170.588 80.4556 171.658 60.4638C172.684 41.3153 197.786 33.1788 203.641 49.4141C209.496 65.6494 184.115 73.2494 179.694 55.7137C175.548 39.2725 191.144 28.6246 209.478 29.6345" stroke="#6B81BE" stroke-width="2" stroke-miterlimit="10" stroke-linecap="round" stroke-linejoin="round" stroke-dasharray="9 9"/>
<path d="M128.317 51.0477H123.618C123.618 51.0477 123.706 59.5914 127.097 66.8027L131.86 65.2774C128.722 58.611 128.317 51.0477 128.317 51.0477Z" fill="#404B7C"/>
<path d="M126.284 51.0477H121.585C121.585 51.0477 121.677 60.0446 125.338 67.3662L130.099 65.8415C126.711 59.0455 126.284 51.0477 126.284 51.0477Z" fill="#6B81BE"/>
<path d="M140.476 26.9731L146.946 56.7175C145.152 55.9052 143.424 55.2272 141.767 54.6666C131.525 51.1737 123.932 51.9966 120.22 52.8347C119.025 53.1048 118.235 53.379 117.884 53.5065C117.875 53.5086 117.866 53.5156 117.861 53.5167C117.743 53.5628 117.682 53.5863 117.682 53.5863C116.607 53.8202 115.172 51.4102 114.474 48.2051C113.777 45 114.082 42.2117 115.156 41.9779C115.156 41.9779 115.222 41.9738 115.348 41.9668C115.353 41.9657 115.364 41.9685 115.374 41.9663C115.746 41.9366 116.578 41.8579 117.778 41.6072C121.503 40.8326 128.747 38.4278 136.617 30.9951C137.891 29.792 139.181 28.4571 140.476 26.9731Z" fill="#6B81BE"/>
<path d="M120.22 52.8346C119.025 53.1048 118.235 53.3789 117.884 53.5064C117.875 53.5086 117.866 53.5155 117.861 53.5166C117.743 53.5627 117.682 53.5863 117.682 53.5863C116.607 53.8201 115.172 51.4101 114.474 48.2051C113.777 45 114.082 42.2116 115.156 41.9778C115.156 41.9778 115.222 41.9737 115.348 41.9667C115.353 41.9657 115.364 41.9684 115.374 41.9663C115.746 41.9365 116.578 41.8578 117.778 41.6072C117.089 42.4426 116.967 44.8435 117.553 47.5355C118.138 50.2275 119.247 52.3606 120.22 52.8346Z" fill="#3F72AF"/>
<path d="M140.475 26.9731L146.946 56.7175C145.152 55.9052 143.423 55.2272 141.766 54.6666C140.525 52.8643 139.335 50.2883 138.378 47.2524C137.975 45.9891 137.616 44.6447 137.31 43.2376C137.004 41.8305 136.772 40.4584 136.614 39.142C136.219 35.9888 136.236 33.1503 136.617 30.9951C137.89 29.792 139.181 28.4571 140.475 26.9731Z" fill="#3F72AF"/>
<path d="M149.969 40.4839C151.803 48.9167 151.004 56.2492 148.18 56.8635C145.83 57.3747 142.818 53.0562 140.821 46.721C140.418 45.4577 140.059 44.1133 139.753 42.7062C139.447 41.2991 139.215 39.927 139.057 38.6106C138.242 32.0182 139.187 26.8388 141.537 26.3276C144.361 25.7133 148.135 32.0511 149.969 40.4839Z" fill="#404B7C"/>
<path d="M144.071 37.9703L145.648 45.2208C145.648 45.2208 143.005 45.6781 140.821 46.721C140.419 45.4577 140.06 44.1133 139.754 42.7062C139.448 41.2991 139.216 39.927 139.057 38.6106C141.476 38.6524 144.071 37.9703 144.071 37.9703Z" fill="#E9F3FF"/>
<path d="M145.649 45.2198C146.319 45.0742 146.509 43.3334 146.074 41.3318C145.638 39.3303 144.742 37.8258 144.073 37.9714C143.403 38.1171 143.213 39.8578 143.648 41.8594C144.084 43.861 144.98 45.3655 145.649 45.2198Z" fill="#6B81BE"/>
<path d="M98.3534 60.5685C107.069 61.4769 120.347 78.5264 120.347 78.5264C120.347 78.5264 122.396 75.4967 127.149 75.6155C131.901 75.7343 137.129 78.8234 138.198 92.2492C139.267 105.675 133.089 110.903 124.535 110.071C115.98 109.239 100.816 92.2261 94.9506 81.0809C85.4456 63.0215 98.3534 60.5685 98.3534 60.5685Z" fill="#3F72AF"/>
<path d="M120.347 78.5265C120.347 78.5265 118.832 81.4374 119.663 89.0413" stroke="#ECBDBB" stroke-miterlimit="10" stroke-linecap="round" stroke-linejoin="round"/>
<path d="M121.075 72.764C120.881 72.8208 121.041 79.2987 121.041 79.2987C121.041 79.2987 123.301 80.8432 128.451 80.3086C132.59 79.879 133.437 79.0611 133.437 79.0611L132.754 72.8234C132.754 72.8234 128.998 70.4472 121.075 72.764Z" fill="#6B81BE"/>
<path d="M122.223 73.5754L120.85 65.2848C120.85 65.2848 119.237 56.2116 119.431 54.9662C119.626 53.7209 124.136 50.9215 125.463 50.844C126.789 50.7665 126.775 53.1916 124.69 55.4121C124.69 55.4121 128.658 54.2282 130.529 54.9059C132.4 55.5837 131.956 57.4654 131.468 58.5045C131.468 58.5045 133.176 59.7261 131.738 61.9623C131.738 61.9623 133.305 63.2602 132.024 65.3658C132.024 65.3658 133.412 67.262 130.363 68.5429L131.049 73.2004C131.049 73.2004 126.495 75.0809 122.223 73.5754Z" fill="#ECBDBB"/>
<path d="M124.416 56.3978C124.416 56.3978 122.678 57.8681 124.594 59.2939C124.594 59.2939 123.387 61.4391 125.394 62.4605C125.394 62.4605 124.193 64.8632 126.688 65.5315C126.688 65.5315 125.352 67.5364 127.757 68.3384" stroke="#404B7C" stroke-miterlimit="10" stroke-linecap="round" stroke-linejoin="round"/>
<path d="M95.2886 258.173C95.2886 258.173 101.128 258.874 101.128 258.699C101.128 258.573 102.159 253.827 102.713 251.282C102.916 250.343 103.056 249.705 103.056 249.705L95.9335 249.004L95.59 253.897L95.2886 258.173Z" fill="#ECBDBB"/>
<path d="M95.9338 249.004L95.5903 253.897C99.2567 253.371 101.563 252.095 102.713 251.282C102.916 250.343 103.056 249.705 103.056 249.705L95.9338 249.004Z" fill="#404B7C"/>
<path d="M102.533 256.362C102.533 256.362 110.302 264.541 111.471 264.716C112.639 264.892 117.955 266.002 117.955 266.002L120.059 274.589C120.059 274.589 99.8453 274.94 89.3882 272.72C89.505 266.995 90.9655 260.335 93.7697 255.895C96.3876 256.801 99.292 256.998 102.533 256.362Z" fill="#404B7C"/>
<path d="M108.725 267.609C108.837 267.609 108.945 267.551 109.005 267.448C109.094 267.294 109.041 267.096 108.887 267.007C102.145 263.122 98.8123 257.596 98.7795 257.541C98.6888 257.387 98.4902 257.337 98.3376 257.429C98.1838 257.519 98.1334 257.717 98.2248 257.87C98.2582 257.928 101.678 263.597 108.564 267.566C108.615 267.595 108.67 267.609 108.725 267.609Z" fill="#9AB3DA"/>
<path d="M113.282 264.307C113.282 264.307 125.316 264.132 122.337 278.854C122.337 278.854 101.832 278.912 88.5703 276.4L88.7456 271.902C88.7456 271.902 99.7869 273.479 107.323 273.421C107.323 273.421 108.9 266.586 113.282 264.307Z" fill="#3F72AF"/>
<path d="M95.668 269.624C97.5555 269.624 99.0856 267.78 99.0856 265.505C99.0856 263.23 97.5555 261.386 95.668 261.386C93.7806 261.386 92.2505 263.23 92.2505 265.505C92.2505 267.78 93.7806 269.624 95.668 269.624Z" fill="#EEEEEE"/>
<path d="M107.206 240.122C107.206 240.122 106.797 246.431 104.753 251.105C104.753 251.105 100.722 251.689 97.0996 251.105C93.4775 250.52 91.8418 249.177 91.8418 249.177L92.1923 239.479C97.259 237.828 102.267 237.932 107.206 240.122Z" fill="#9AB3DA"/>
<path d="M87.2266 161.255C87.2266 161.255 87.6051 163.674 88.166 167.403C88.5725 170.053 89.0703 173.376 89.6031 176.958C90.7668 184.859 92.0777 194.057 92.8349 200.338C94.4122 213.482 94.5875 240.998 94.5875 240.998C98.9689 243.452 104.928 242.05 104.928 242.05C104.928 242.05 111.412 205.42 113.34 188.07C115.268 170.719 117.021 132.512 117.021 132.512C116.495 118.316 89.6802 120.069 88.4534 139.523L87.2266 161.255Z" fill="#6B81BE"/>
<path d="M88.166 167.403C88.5726 170.053 89.0703 173.376 89.6031 176.958C94.4543 171.876 96.1298 163.316 96.2419 162.692C95.6671 164.949 92.0287 166.45 88.166 167.403Z" fill="#404B7C"/>
<path d="M106.514 189.128C112.343 189.914 112.22 206.247 103.315 206.334C94.41 206.42 98.8194 188.091 106.514 189.128Z" fill="#9AB3DA"/>
<path d="M96.6911 239.919C96.8538 239.919 96.9937 239.796 97.0114 239.631C100.131 210.796 93.7212 166.225 93.6562 165.778C93.631 165.601 93.4658 165.482 93.29 165.505C93.1134 165.531 92.9918 165.695 93.017 165.871C93.0819 166.317 99.4808 210.808 96.3696 239.562C96.3507 239.739 96.4787 239.898 96.6558 239.917C96.6678 239.918 96.6791 239.919 96.6911 239.919Z" fill="#9AB3DA"/>
<path d="M90.2484 167.186C90.2648 167.186 90.2818 167.185 90.2982 167.182C90.5125 167.149 95.5547 166.321 96.5634 162.745C97.5248 159.337 98.9672 142.29 99.0278 141.566C99.0429 141.388 98.9111 141.232 98.7333 141.217C98.56 141.199 98.3998 141.334 98.3847 141.511C98.3696 141.688 96.8868 159.221 95.9418 162.57C95.1985 165.206 91.7646 166.2 90.592 166.465C90.7269 163.759 91.4506 148.593 91.0541 142.482C91.0421 142.303 90.8738 142.172 90.7111 142.18C90.5333 142.192 90.3984 142.345 90.4098 142.523C90.8416 149.175 89.935 166.671 89.9262 166.846C89.9212 166.943 89.9596 167.038 90.0321 167.103C90.092 167.157 90.1689 167.186 90.2484 167.186Z" fill="#9AB3DA"/>
<path d="M114.656 149.272C114.76 149.272 114.823 149.264 114.833 149.262C115.009 149.236 115.132 149.072 115.106 148.896C115.079 148.72 114.914 148.6 114.741 148.623C114.701 148.627 113.931 148.711 113.086 147.91C111.843 146.731 110.48 143.695 111.047 135.924C111.06 135.747 110.926 135.592 110.748 135.579C110.585 135.567 110.416 135.699 110.403 135.877C109.814 143.943 111.311 147.142 112.671 148.406C113.501 149.177 114.307 149.272 114.656 149.272Z" fill="#9AB3DA"/>
<path d="M56.7305 261.763L63.0398 261.945L64.5471 255.348L65.1429 252.74L57.081 252.649L56.8917 257.501L56.7305 261.763Z" fill="#ECBDBB"/>
<path d="M56.8916 257.501C59.7238 257.255 62.2966 256.435 64.547 255.348L65.1428 252.74L57.0809 252.649L56.8916 257.501Z" fill="#404B7C"/>
<path d="M65.0114 259.707C65.0114 259.707 60.1041 257.341 55.7226 259.137C55.7226 259.137 53.269 263.519 52.4365 271.187C52.4365 271.187 55.5036 280.87 62.2072 281.614C68.9109 282.359 74.2563 280.738 74.2563 280.738C74.2563 280.738 69.8018 270.281 69.0569 268.309C68.3121 266.338 65.0114 259.707 65.0114 259.707Z" fill="#404B7C"/>
<path d="M62.4514 273.295C63.9865 273.295 67.0806 273.113 68.0332 271.7C68.4077 271.146 68.4178 270.479 68.0641 269.721C66.4553 266.272 64.6491 260.928 64.6308 260.875C64.5741 260.706 64.3906 260.616 64.2223 260.672C64.0533 260.728 63.9625 260.912 64.0193 261.08C64.0376 261.134 65.8551 266.513 67.4791 269.994C67.7338 270.54 67.7401 270.98 67.498 271.339C66.6828 272.548 63.3138 272.688 61.8506 272.64C61.3986 271.615 59.1612 266.365 58.3347 261.045C58.3076 260.869 58.1405 260.749 57.9659 260.776C57.79 260.803 57.6696 260.968 57.6967 261.145C58.6278 267.136 61.3172 273.03 61.3444 273.089C61.3942 273.198 61.5007 273.27 61.6205 273.276C61.7333 273.282 62.0353 273.295 62.4514 273.295Z" fill="#9AB3DA"/>
<path d="M56.6424 266.637C57.0507 264.712 56.7803 263.023 56.0386 262.866C55.2969 262.709 54.3647 264.142 53.9564 266.067C53.5482 267.993 53.8186 269.681 54.5603 269.838C55.302 269.996 56.2342 268.562 56.6424 266.637Z" fill="#EEEEEE"/>
<path d="M70.3715 268.397C70.3715 268.397 79.9523 274.297 75.4832 286.127C75.4832 286.127 63.7408 287.88 59.1841 285.777C54.6274 283.674 51.6479 274.801 51.6479 274.801C51.6479 274.801 51.8013 272.194 52.3709 270.573C52.3709 270.573 54.9487 275.466 58.4246 278.474C58.4246 278.474 59.0673 266.732 70.3715 268.397Z" fill="#3F72AF"/>
<path d="M70.1379 243.715C70.1379 243.715 62.777 240.355 54.7151 243.539L54.6274 253.704C54.6274 253.704 60.3234 255.72 66.3698 253.967L70.1379 243.715Z" fill="#9AB3DA"/>
<path d="M55.8472 244.812C61.4835 246.683 66.9656 245.387 68.4378 244.966C71.5154 235.705 84.3864 196.657 87.9266 180.183C91.9576 161.43 92.6586 140.049 92.6586 140.049C90.5555 124.542 61.1961 123.658 58.4831 140.925C58.4831 140.925 58.3078 199.286 58.1326 207.524C57.9854 214.401 56.3729 237.409 55.8472 244.812Z" fill="#6B81BE"/>
<path d="M89.643 171.239C89.7987 171.239 89.9361 171.126 89.9613 170.967C92.4604 155.246 92.976 140.209 92.9811 140.059C92.9868 139.881 92.8468 139.732 92.669 139.726C92.6652 139.726 92.6615 139.726 92.6583 139.726C92.4849 139.726 92.3412 139.864 92.3355 140.038C92.3305 140.188 91.816 155.186 89.3233 170.866C89.2956 171.042 89.4154 171.207 89.5919 171.236C89.6089 171.238 89.6259 171.239 89.643 171.239Z" fill="#9AB3DA"/>
<path d="M74.0809 195.08C79.9889 195.877 79.8645 212.431 70.8387 212.518C61.8128 212.606 66.2819 194.029 74.0809 195.08Z" fill="#9AB3DA"/>
<path d="M58.6588 242.548C58.8196 242.548 58.9583 242.428 58.9785 242.264C59.0541 241.651 66.5247 180.425 67.2182 138.827C67.2214 138.649 67.0789 138.502 66.9011 138.499C66.7025 138.502 66.5758 138.638 66.5726 138.817C65.8798 180.381 58.413 241.573 58.338 242.186C58.3159 242.363 58.442 242.524 58.6191 242.545C58.6324 242.547 58.6456 242.548 58.6588 242.548Z" fill="#9AB3DA"/>
<path d="M68.7344 159.358C70.9542 159.358 74.5079 156.688 74.9687 154.674C75.6685 151.612 76.0524 140.278 76.0688 139.797C76.0745 139.619 75.9352 139.469 75.7568 139.463C75.753 139.463 75.7492 139.463 75.7461 139.463C75.5727 139.463 75.4289 139.601 75.4233 139.775C75.4195 139.892 75.0255 151.528 74.3396 154.53C73.9462 156.25 70.6459 158.713 68.7344 158.713C68.556 158.713 68.4116 158.857 68.4116 159.035C68.4116 159.214 68.556 159.358 68.7344 159.358Z" fill="#9AB3DA"/>
<path d="M78.5481 58.1149C78.5481 58.1149 88.3626 58.2025 98.3524 60.5685C98.3524 60.5685 112.987 88.3471 119.121 133.213C119.121 133.213 112.461 142.502 91.4296 145.832C70.3985 149.162 55.151 143.379 55.151 143.379C55.151 143.379 51.6458 86.7698 55.852 70.6459C55.852 70.6459 66.8057 59.3417 78.5481 58.1149Z" fill="#3F72AF"/>
<path d="M99.3066 62.5007C101.512 67.1258 107.164 79.8826 112.247 98.9157" stroke="#ECBDBB" stroke-miterlimit="10" stroke-linecap="round" stroke-linejoin="round"/>
<path d="M116.289 130.099C116.078 130.27 94.5723 147.086 56.8511 139.382" stroke="#ECBDBB" stroke-miterlimit="10" stroke-linecap="round" stroke-linejoin="round"/>
<path d="M83.5346 83.2531C83.1786 83.0802 82.9149 82.7772 82.7933 82.3996C81.8808 79.5639 78.7515 69.9549 76.8055 65.3691C76.7379 65.2097 76.808 65.0257 76.9643 64.9513L81.2257 62.9243C81.3055 62.8873 81.3989 62.8827 81.4817 62.9153C81.5652 62.9477 81.631 63.0129 81.6641 63.096C81.708 63.2062 86.1064 74.1993 88.1898 80.5269C88.4325 81.2647 88.049 82.055 87.3174 82.3263L84.6674 83.3076C84.5864 83.3375 84.5033 83.3601 84.4209 83.3752C84.1213 83.43 83.8145 83.3888 83.5346 83.2531ZM77.5197 65.4021C79.4817 70.1136 82.5115 79.4171 83.4082 82.2015C83.4751 82.4097 83.6204 82.577 83.8167 82.6725C84.0137 82.7681 84.2367 82.7789 84.4432 82.702L87.0931 81.7207C87.4977 81.571 87.7101 81.1348 87.5768 80.7285C85.6991 75.0275 81.9323 65.514 81.1922 63.6553L77.5197 65.4021Z" fill="#ECBDBB"/>
<path d="M77.0148 54.6536C78.9484 54.3524 81.4262 54.9128 82.717 55.2687C83.2387 55.4125 83.6069 55.8755 83.6379 56.4158L83.9814 62.4088C83.9814 62.4088 81.8345 65.7825 77.6721 66.0016C73.5097 66.2207 71.2313 63.8109 71.2313 63.8109L69.966 58.0979C69.8503 57.5753 70.0704 57.0311 70.527 56.7519C71.503 56.155 73.5185 55.1981 77.0148 54.6536Z" fill="#6B81BE"/>
<path d="M73.9951 49.748L74.0301 52.3699L74.1143 58.532C74.2475 58.5601 74.3806 58.5811 74.5139 58.6021C76.8553 58.9737 78.9233 58.497 80.3745 57.9291L79.5614 54.6833L78.4186 50.1406L73.9951 49.748Z" fill="#ECBDBB"/>
<path d="M73.9951 49.748L74.0301 52.3699C75.1238 53.3163 76.8483 54.2557 79.5614 54.6833L78.4186 50.1406L73.9951 49.748Z" fill="#404B7C"/>
<path d="M76.1854 59.0554C77.9525 59.0554 79.451 58.6371 80.4925 58.2299C80.6728 58.1577 80.8437 58.0861 81.0082 58.0149C82.1297 57.5216 82.7892 57.0384 82.8163 57.0182C82.96 56.9123 82.9903 56.7102 82.8844 56.5668C82.7791 56.424 82.5773 56.3928 82.433 56.4987C82.4267 56.5031 81.7988 56.9621 80.7497 57.4235C80.5927 57.4916 80.4269 57.5607 80.2548 57.6294C78.965 58.1344 76.9312 58.6576 74.5646 58.2835C74.4284 58.2617 74.3048 58.2425 74.1813 58.2163C73.1934 58.0231 72.2086 57.6722 71.2485 57.1733C71.0921 57.0913 70.8961 57.1518 70.8135 57.3107C70.7309 57.4686 70.7927 57.6637 70.9509 57.7457C71.9653 58.2737 73.0093 58.6447 74.0527 58.8489C74.1825 58.8764 74.3168 58.8978 74.4523 58.9192C75.0525 59.0144 75.6325 59.0554 76.1854 59.0554Z" fill="#9AB3DA"/>
<path d="M77.5835 32.2058C84.2733 32.8094 86.0544 48.2128 85.1196 50.608C84.1849 53.0032 74.7209 51.8348 73.202 51.0753C71.6831 50.3159 69.8137 44.9413 69.2879 41.4069C68.7621 37.8725 69.8137 31.5047 77.5835 32.2058Z" fill="#ECBDBB"/>
<path d="M71.3911 45.4378L71.3473 43.2471C71.3473 43.2471 73.4942 41.1878 72.837 38.7341C72.837 38.7341 81.6876 42.3708 87.6902 37.5511C87.6902 37.5511 86.4634 35.9738 85.149 35.4042C85.149 35.4042 90.3824 30.6641 89.3114 23.8809C88.9171 21.3835 82.5639 24.5819 80.5922 27.6928C80.5922 27.6928 82.2715 21.024 78.9273 17.5278C77.9633 16.52 73.8447 21.8654 72.7494 26.8603C72.7494 26.8603 71.9317 22.9362 70.2519 21.5149C69.6823 21.0329 67.5792 24.8448 67.5354 30.6284C67.5354 30.6284 63.1539 33.3011 61.6204 37.7702C60.0869 42.2393 62.7158 48.242 71.6102 48.6801L71.3911 45.4378Z" fill="#404B7C"/>
<path d="M71.3914 45.4378C71.3914 45.4378 68.8064 40.4867 65.7831 42.1955C62.7599 43.9043 66.6594 49.8193 72.2239 49.0306L71.3914 45.4378Z" fill="#ECBDBB"/>
<path d="M70.4707 47.9952C70.4859 47.9952 70.501 47.9942 70.5161 47.992C70.6926 47.9671 70.8156 47.8041 70.791 47.6276C70.7853 47.5857 70.1643 43.4532 66.6856 43.4062C66.6844 43.4062 66.6825 43.4062 66.6812 43.4062C66.5047 43.4062 66.361 43.5478 66.3584 43.7246C66.3559 43.903 66.4984 44.0493 66.6768 44.0518C69.6083 44.0915 70.1467 47.6809 70.1517 47.7171C70.1744 47.8785 70.3125 47.9952 70.4707 47.9952Z" fill="#404B7C"/>
<path d="M68.1498 47.36C68.3055 47.36 68.4429 47.2465 68.4681 47.0873C68.47 47.0731 68.6964 45.672 69.2644 44.8509C69.3659 44.7043 69.3293 44.5032 69.1824 44.4017C69.0368 44.3008 68.8351 44.3361 68.7336 44.4833C68.0804 45.4274 67.8402 46.924 67.8301 46.9871C67.8024 47.1633 67.9228 47.3285 68.0993 47.3559C68.1157 47.3587 68.1328 47.36 68.1498 47.36Z" fill="#404B7C"/>
<path d="M80.803 46.4414C80.825 46.4414 80.8477 46.4392 80.8704 46.4342C80.9303 46.4216 82.3362 46.1073 82.5575 44.8285C82.5808 44.6917 82.5146 44.5549 82.3923 44.489C81.3206 43.9121 80.2551 42.1369 80.2444 42.1189C80.153 41.9644 79.9538 41.9156 79.8018 42.0067C79.6487 42.0981 79.5982 42.296 79.6896 42.4492C79.7338 42.5236 80.7267 44.1769 81.8646 44.9246C81.6036 45.6033 80.7437 45.8012 80.7343 45.8031C80.5609 45.8416 80.4506 46.0134 80.4884 46.1871C80.5212 46.338 80.6542 46.4414 80.803 46.4414Z" fill="#404B7C"/>
<path d="M79.1235 49.0038C80.9864 49.0038 82.1578 48.2401 82.217 48.2007C82.3652 48.102 82.4049 47.9025 82.3065 47.754C82.2088 47.6055 82.009 47.5652 81.8596 47.6629C81.8444 47.673 80.2854 48.6782 77.9559 48.2498C77.7782 48.2152 77.6124 48.333 77.5796 48.5086C77.5474 48.6842 77.6634 48.8525 77.8387 48.8847C78.2957 48.9688 78.7251 49.0038 79.1235 49.0038Z" fill="#404B7C"/>
<path d="M77.3508 40.6071C77.3508 40.6071 76.9231 39.3736 76.5501 39.2206C76.1772 39.0677 76.3002 39.6783 76.3002 39.6783C76.3002 39.6783 73.6788 39.8479 74.052 42.4283C74.052 42.4283 74.7851 40.7622 77.3508 40.6071Z" fill="#404B7C"/>
<path d="M80.2729 39.7795C80.2729 39.7795 79.8655 38.536 79.9914 38.1881C80.1174 37.8401 80.368 38.4019 80.368 38.4019C80.368 38.4019 81.9023 36.9494 83.0422 39.2348C83.0422 39.2348 81.7689 38.3492 80.2729 39.7795Z" fill="#404B7C"/>
<path d="M77.5817 44.5704C78.1121 44.4184 78.3887 43.7598 78.1995 43.0993C78.0102 42.4388 77.4269 42.0265 76.8964 42.1785C76.366 42.3304 76.0894 42.9891 76.2787 43.6496C76.4679 44.3101 77.0513 44.7224 77.5817 44.5704Z" fill="#404B7C"/>
<path d="M77.5823 43.3308C77.7723 43.3308 77.9263 43.1768 77.9263 42.9868C77.9263 42.7968 77.7723 42.6428 77.5823 42.6428C77.3923 42.6428 77.2383 42.7968 77.2383 42.9868C77.2383 43.1768 77.3923 43.3308 77.5823 43.3308Z" fill="white"/>
<path d="M82.5817 42.9311C83.1121 42.7792 83.3887 42.1205 83.1995 41.46C83.0102 40.7995 82.4269 40.3872 81.8964 40.5392C81.366 40.6911 81.0894 41.3498 81.2787 42.0103C81.4679 42.6708 82.0513 43.0831 82.5817 42.9311Z" fill="#404B7C"/>
<path d="M82.5823 41.6916C82.7723 41.6916 82.9263 41.5375 82.9263 41.3475C82.9263 41.1576 82.7723 41.0035 82.5823 41.0035C82.3923 41.0035 82.2383 41.1576 82.2383 41.3475C82.2383 41.5375 82.3923 41.6916 82.5823 41.6916Z" fill="white"/>
<path d="M55.1797 143.725C55.1797 143.725 61.15 149.695 62.0411 149.962C62.9322 150.229 69.8827 146.531 69.8827 146.531C69.8827 146.531 73.8034 148.492 75.2292 147.779C77.068 146.86 75.5856 145.061 75.5856 145.061C75.5856 145.061 76.6549 144.036 76.3876 143.234C76.1203 142.432 75.3183 141.764 75.3183 141.764C75.3183 141.764 75.6747 140.695 75.1401 139.893C74.6054 139.091 73.2688 138.645 73.2688 138.645C73.2688 138.645 73.0015 137.309 72.4668 136.863C71.9322 136.418 67.744 135.616 66.5856 135.883C65.4272 136.15 61.6846 140.517 61.6846 140.517L59.546 137.754L55.1797 143.725Z" fill="#ECBDBB"/>
<path d="M72.4672 138.422C72.4672 138.422 68.68 137.754 68.1899 137.754" stroke="#404B7C" stroke-miterlimit="10" stroke-linecap="round" stroke-linejoin="round"/>
<path d="M69.6152 140.784L74.338 141.541" stroke="#404B7C" stroke-miterlimit="10" stroke-linecap="round" stroke-linejoin="round"/>
<path d="M70.9077 143.903L74.4275 144.571" stroke="#404B7C" stroke-miterlimit="10" stroke-linecap="round" stroke-linejoin="round"/>
<path d="M45.8242 140.249C45.8242 140.249 50.5854 144.348 52.2062 145.328C53.827 146.309 60.7155 140.784 60.6142 137.843L55.4479 131.517L45.8242 140.249Z" fill="#6B81BE"/>
<path d="M56.8086 69.8067C40.1954 83.4831 25.6706 114.942 27.0964 122.546C28.5221 130.15 40.6409 142.269 45.631 142.507C50.6211 142.744 57.5122 133.715 57.5122 130.863C57.5122 128.012 49.9082 118.032 49.9082 118.032C49.9082 118.032 63.928 101.636 68.2053 90.7049C72.4825 79.7742 67.3744 65.4311 56.8086 69.8067Z" fill="#3F72AF"/>
<path d="M49.2495 141.426C53.2928 138.853 57.1691 133.239 57.1691 131.101C57.1691 128.249 49.5651 118.269 49.5651 118.269C49.5651 118.269 63.5849 101.873 67.8621 90.9423C71.872 80.6947 67.6331 67.4481 58.3817 69.4377" stroke="#ECBDBB" stroke-miterlimit="10" stroke-linecap="round" stroke-linejoin="round"/>
<path d="M40.2979 120.051C47.5454 119.457 49.5652 118.269 49.5652 118.269C49.5652 118.269 47.9018 120.971 43.1493 123.185" stroke="#ECBDBB" stroke-miterlimit="10" stroke-linecap="round" stroke-linejoin="round"/>
</svg>
